<svg width="22" height="19" viewBox="0 0 22 19" fill="none" xmlns="http://www.w3.org/2000/svg">
<path fill-rule="evenodd" clip-rule="evenodd" d="M8.67361 12.0684L8.6732 12.0681L8.67366 12.0677L8.67366 12.0675L8.67374 12.0676L17.9473 3.69891C18.3543 3.33768 17.8584 3.16153 17.3181 3.48918L5.8726 10.71L0.928764 9.16696C-0.138886 8.84006 -0.146552 8.10641 1.16846 7.57896L20.4335 0.15046C21.3133 -0.249007 22.1626 0.361793 21.8267 1.70849L18.5459 17.169C18.3168 18.2676 17.6529 18.5304 16.7332 18.0229L11.7355 14.3306L9.33333 16.6664C9.32575 16.6737 9.31822 16.6811 9.31072 16.6884C9.04205 16.95 8.81976 17.1664 8.33333 17.1664L8.67361 12.0684Z" fill="white"/>
</svg>
